<?xml version="1.0" encoding="utf-8"?>
<!-- Generator: Adobe Illustrator 19.0.0, SVG Export Plug-In . SVG Version: 6.00 Build 0)  -->
<svg version="1.1" id="Layer_1" xmlns="http://www.w3.org/2000/svg" xmlns:xlink="http://www.w3.org/1999/xlink" x="0px" y="0px"
	 viewBox="-134 340.3 342 113.7" style="enable-background:new -134 340.3 342 113.7;" xml:space="preserve">
<style type="text/css">
	.st0{fill:#FFFFFF;}
	.st1{fill:url(#XMLID_3_);}
	.st2{fill:url(#XMLID_4_);}
	.st3{fill:url(#XMLID_5_);}
	.st4{fill:url(#XMLID_6_);}
	.st5{opacity:0.7;fill:url(#XMLID_8_);enable-background:new    ;}
	.st6{opacity:0.7;fill:url(#XMLID_10_);enable-background:new    ;}
	.st7{opacity:0.7;fill:url(#XMLID_12_);enable-background:new    ;}
	.st8{opacity:0.7;fill:url(#XMLID_14_);enable-background:new    ;}
	.st9{opacity:0.74;fill:#FFFFFF;enable-background:new    ;}
	.st10{opacity:0.4;fill:#FFFFFF;enable-background:new    ;}
	.st11{opacity:0.45;fill:url(#XMLID_15_);enable-background:new    ;}
	.st12{opacity:0.36;fill:url(#XMLID_16_);enable-background:new    ;}
	.st13{opacity:0.45;fill:url(#XMLID_17_);enable-background:new    ;}
	.st14{opacity:0.36;fill:url(#XMLID_18_);enable-background:new    ;}
	.st15{opacity:0.5;}
	.st16{opacity:0.45;fill:url(#XMLID_19_);enable-background:new    ;}
	.st17{opacity:0.36;fill:url(#XMLID_20_);enable-background:new    ;}
	.st18{opacity:0.45;fill:url(#XMLID_21_);enable-background:new    ;}
	.st19{opacity:0.36;fill:url(#XMLID_22_);enable-background:new    ;}
	.st20{opacity:0.35;fill:url(#XMLID_23_);enable-background:new    ;}
	.st21{opacity:0.3;fill:url(#XMLID_24_);enable-background:new    ;}
	.st22{opacity:0.25;fill:url(#XMLID_25_);enable-background:new    ;}
	.st23{opacity:0.2;fill:url(#XMLID_26_);enable-background:new    ;}
	.st24{opacity:0.2;fill:url(#XMLID_27_);enable-background:new    ;}
	.st25{opacity:0.2;fill:url(#XMLID_28_);enable-background:new    ;}
	.st26{opacity:0.35;fill:url(#XMLID_29_);enable-background:new    ;}
	.st27{opacity:0.47;fill:url(#XMLID_30_);enable-background:new    ;}
	.st28{opacity:0.63;clip-path:url(#SVGID_2_);}
	.st29{fill:url(#XMLID_31_);}
	.st30{opacity:0.8;enable-background:new    ;}
	.st31{opacity:0.63;clip-path:url(#SVGID_4_);}
	.st32{fill:url(#XMLID_32_);}
	.st33{opacity:0.6;enable-background:new    ;}
	.st34{opacity:0.63;clip-path:url(#SVGID_6_);}
	.st35{fill:url(#XMLID_33_);}
	.st36{opacity:0.4;enable-background:new    ;}
	.st37{opacity:0.63;clip-path:url(#SVGID_8_);}
	.st38{fill:url(#XMLID_34_);}
	.st39{opacity:0.3;enable-background:new    ;}
	.st40{opacity:0.63;clip-path:url(#SVGID_10_);}
	.st41{fill:url(#XMLID_35_);}
	.st42{opacity:0.63;clip-path:url(#SVGID_12_);}
	.st43{fill:url(#XMLID_36_);}
	.st44{opacity:0.63;clip-path:url(#SVGID_14_);}
	.st45{fill:url(#XMLID_37_);}
	.st46{opacity:0.63;clip-path:url(#SVGID_16_);}
	.st47{fill:url(#XMLID_38_);}
</style>
<g>
	<g id="XMLID_2_">
		<g id="XMLID_228_">
			<path id="XMLID_240_" class="st0" d="M16.2,397.1c-3.3-1.8-5.9-4.3-7.8-7.4c-1.9-3.2-2.8-6.7-2.8-10.6c0-3.9,0.9-7.4,2.8-10.6
				c1.9-3.2,4.5-5.6,7.8-7.4c3.3-1.8,7-2.7,11.1-2.7s7.8,0.9,11.1,2.7c3.3,1.8,5.9,4.2,7.8,7.4c1.9,3.1,2.8,6.7,2.8,10.6
				c0,3.9-0.9,7.5-2.8,10.6c-1.9,3.1-4.5,5.6-7.8,7.4c-3.3,1.8-7,2.7-11.1,2.7C23.2,399.7,19.5,398.8,16.2,397.1z M34.5,391.4
				c2.1-1.2,3.8-2.9,5.1-5.1c1.3-2.2,1.8-4.6,1.8-7.3c0-2.7-0.6-5.1-1.8-7.3c-1.2-2.2-2.9-3.8-5.1-5.1c-2.1-1.2-4.6-1.8-7.2-1.8
				c-2.7,0-5.1,0.6-7.2,1.8c-2.1,1.2-3.8,2.9-5.1,5.1c-1.2,2.2-1.8,4.6-1.8,7.3c0,2.7,0.6,5.1,1.8,7.3c1.2,2.2,2.9,3.8,5.1,5.1
				c2.1,1.2,4.6,1.8,7.2,1.8C30,393.2,32.4,392.6,34.5,391.4z"/>
			<path id="XMLID_236_" class="st0" d="M91.8,399.2l-8.2-11.8c-0.3,0-0.9,0.1-1.6,0.1h-9.1v11.7h-7.5v-40.3h16.5
				c3.5,0,6.5,0.6,9.1,1.7c2.6,1.1,4.6,2.8,5.9,4.9c1.4,2.1,2.1,4.7,2.1,7.6c0,3-0.7,5.6-2.2,7.8s-3.6,3.8-6.3,4.9l9.3,13.2h-8
				V399.2z M89.1,367.3c-1.7-1.4-4.2-2.1-7.4-2.1H73v16h8.7c3.3,0,5.7-0.7,7.4-2.1c1.7-1.4,2.5-3.4,2.5-5.9S90.8,368.7,89.1,367.3z"
				/>
			<path id="XMLID_233_" class="st0" d="M146.3,392.9v6.3h-30.2v-40.3h29.4v6.3h-21.9v10.5H143v6.1h-19.4v11.1H146.3z"/>
			<path id="XMLID_230_" class="st0" d="M170.8,397.1c-3.3-1.8-5.9-4.3-7.8-7.4c-1.9-3.2-2.8-6.7-2.8-10.6c0-3.9,0.9-7.4,2.8-10.6
				c1.9-3.2,4.5-5.6,7.8-7.4c3.3-1.8,7-2.7,11.1-2.7s7.8,0.9,11.1,2.7c3.3,1.8,5.9,4.2,7.8,7.4c1.9,3.1,2.8,6.7,2.8,10.6
				c0,3.9-0.9,7.5-2.8,10.6s-4.5,5.6-7.8,7.4c-3.3,1.8-7,2.7-11.1,2.7C177.7,399.7,174,398.8,170.8,397.1z M189.1,391.4
				c2.1-1.2,3.8-2.9,5.1-5.1c1.3-2.2,1.8-4.6,1.8-7.3c0-2.7-0.6-5.1-1.8-7.3c-1.2-2.2-2.9-3.8-5.1-5.1c-2.1-1.2-4.6-1.8-7.2-1.8
				c-2.7,0-5.1,0.6-7.2,1.8c-2.1,1.2-3.8,2.9-5.1,5.1c-1.2,2.2-1.8,4.6-1.8,7.3c0,2.7,0.6,5.1,1.8,7.3c1.2,2.2,2.9,3.8,5.1,5.1
				c2.1,1.2,4.6,1.8,7.2,1.8S186.9,392.6,189.1,391.4z"/>
		</g>
	</g>
	<g id="XMLID_155_">
		<g id="XMLID_204_">
			<path id="XMLID_244_" class="st0" d="M-70.5,447c-4.2,0-8.1-2.2-11.2-6.4c-2.3-3.2-4.1-7.1-5.9-11c-1.8-3.8-3.6-7.8-5.5-9.7
				s-5.8-3.7-9.8-5.5c-3.8-1.8-7.8-3.6-11-5.9c-4.2-3.2-6.4-7-6.4-11.2s2.2-8,6.4-11.3c3.2-2.3,7.1-4.1,11-5.9
				c3.9-1.8,7.9-3.6,9.9-5.5c1.9-1.9,3.7-5.9,5.5-9.7s3.6-7.8,5.9-11c3.2-4.2,7-6.4,11.2-6.4s8.1,2.2,11.2,6.4
				c2.3,3.2,4.1,7.1,5.9,11c1.8,3.8,3.6,7.8,5.5,9.7c1.9,1.9,5.9,3.7,9.9,5.5c3.8,1.8,7.8,3.6,11,5.9c4.2,3.2,6.4,7,6.4,11.2
				c0,4.2-2.2,7.9-6.4,11.2c-3.2,2.3-7.1,4.1-11,5.9c-3.8,1.8-7.9,3.6-9.9,5.5c-1.9,1.9-3.7,5.9-5.5,9.7c-1.8,3.8-3.6,7.8-5.9,11
				C-62.4,444.8-66.2,447-70.5,447z M-70.5,356c-3.6,0-6.6,6.6-9.2,12.3c-2.2,4.8-4.2,9.3-7.3,12.3c-3.1,3-7.5,5.1-12.3,7.3
				c-5.8,2.6-12.3,5.6-12.3,9.2c0,3.6,6.6,6.6,12.3,9.2c4.8,2.2,9.3,4.2,12.3,7.3c3,3,5.1,7.5,7.3,12.3c2.6,5.8,5.6,12.3,9.2,12.3
				c3.6,0,6.6-6.6,9.2-12.3c2.2-4.8,4.2-9.3,7.3-12.3c3-3,7.5-5.1,12.3-7.3c5.8-2.6,12.3-5.6,12.3-9.2c0-3.6-6.6-6.6-12.3-9.2
				c-4.8-2.2-9.3-4.2-12.3-7.3c-3-3-5.1-7.5-7.3-12.3C-63.9,362.6-66.9,356-70.5,356z"/>
			<g id="XMLID_239_">
				
					<linearGradient id="XMLID_3_" gradientUnits="userSpaceOnUse" x1="-185.9634" y1="1340.9364" x2="-185.9634" y2="1301.803" gradientTransform="matrix(0.7071 -0.7071 0.7071 0.7071 -890.0063 -694.7958)">
					<stop  offset="0" style="stop-color:#2D394C"/>
					<stop  offset="1" style="stop-color:#465C73"/>
				</linearGradient>
				<path id="XMLID_151_" class="st1" d="M-102.9,380c1.2-0.5,2.6-1.2,3.8-1.8c-1.4-4.4-2.2-8.4-0.4-10.1c2.5-2.5,9.3,0,15.2,2.2
					c4.9,1.8,9.6,3.6,13.8,3.6c3.3,0,6.8-1.1,10.5-2.3c-0.5-1-1-2.1-1.4-3.2c-0.7-1.6-1.5-3.3-2.3-4.8c-2.6,1-5.1,1.6-6.8,1.6
					c-2.7,0-6.8-1.5-10.8-3s-8.1-3-11.9-3.6c-5.3-0.8-9.5,0.3-12.5,3.3s-4.1,7.3-3.3,12.5c0.4,2.5,1.1,5.1,1.9,7.5
					C-105.7,381.4-104.3,380.7-102.9,380z"/>
				
					<linearGradient id="XMLID_4_" gradientUnits="userSpaceOnUse" x1="-222.9101" y1="1366.7588" x2="-222.9101" y2="1322.9885" gradientTransform="matrix(0.7071 -0.7071 0.7071 0.7071 -890.0063 -694.7958)">
					<stop  offset="0" style="stop-color:#2D394C"/>
					<stop  offset="1" style="stop-color:#465C73"/>
				</linearGradient>
				<path id="XMLID_150_" class="st2" d="M-87.6,429.5c-0.5-1.2-1.1-2.5-1.8-3.7c-4.4,1.5-8.5,2.3-10.3,0.4c-2.5-2.5,0-9.3,2.2-15.2
					c1.8-4.9,3.6-9.6,3.6-13.8c0-3.3-1.1-6.8-2.3-10.7c-1.1,0.5-2.1,1-3.2,1.5c-1.6,0.7-3.3,1.5-4.8,2.2c1,2.6,1.6,5.1,1.6,7
					c0,2.7-1.5,6.8-3,10.8s-3,8.1-3.6,11.9c-0.7,5.3,0.4,9.4,3.4,12.4s7.3,4.1,12.5,3.3c2.5-0.4,5.1-1.1,7.7-2.1
					C-86.3,432.3-86.9,431-87.6,429.5z"/>
				
					<linearGradient id="XMLID_5_" gradientUnits="userSpaceOnUse" x1="-162.4488" y1="1380.2518" x2="-162.4488" y2="1336.4109" gradientTransform="matrix(0.7071 -0.7071 0.7071 0.7071 -890.0063 -694.7958)">
					<stop  offset="0" style="stop-color:#2D394C"/>
					<stop  offset="1" style="stop-color:#465C73"/>
				</linearGradient>
				<path id="XMLID_149_" class="st3" d="M-47.7,358.5c-2.5,0.4-5.1,1.1-7.7,2.1c0.7,1.4,1.4,2.7,1.9,4.2c0.5,1.2,1.1,2.5,1.8,3.7
					c4.4-1.5,8.5-2.3,10.3-0.4c2.5,2.5,0,9.3-2.2,15.2c-1.8,4.9-3.6,9.6-3.6,13.8c0,3.3,1.1,6.8,2.3,10.7c1.1-0.5,2.1-1,3.2-1.5
					c1.6-0.7,3.3-1.5,4.8-2.2c-1-2.6-1.6-5.1-1.6-7c0-2.7,1.5-6.8,3-10.8s3-8.1,3.6-11.9c0.8-5.3-0.3-9.5-3.3-12.5
					C-38.1,358.8-42.4,357.7-47.7,358.5z"/>
				
					<linearGradient id="XMLID_6_" gradientUnits="userSpaceOnUse" x1="-199.3279" y1="1401.3895" x2="-199.3279" y2="1362.2561" gradientTransform="matrix(0.7071 -0.7071 0.7071 0.7071 -890.0063 -694.7958)">
					<stop  offset="0" style="stop-color:#2D394C"/>
					<stop  offset="1" style="stop-color:#465C73"/>
				</linearGradient>
				<path id="XMLID_148_" class="st4" d="M-38,414.3c-1.2,0.5-2.6,1.2-3.8,1.8c1.4,4.4,2.2,8.4,0.4,10.1c-2.5,2.5-9.3,0-15.2-2.2
					c-4.9-1.8-9.6-3.6-13.8-3.6c-3.3,0-6.8,1.1-10.5,2.3c0.5,1,1,2.1,1.4,3.2c0.7,1.6,1.5,3.3,2.3,4.8c2.6-1,5.1-1.6,6.8-1.6
					c2.7,0,6.8,1.5,10.8,3s8.1,3,11.9,3.6c5.3,0.8,9.5-0.3,12.5-3.3s4.1-7.3,3.3-12.5c-0.4-2.5-1.1-5.1-1.9-7.5
					C-35.2,412.9-36.6,413.6-38,414.3z"/>
			</g>
			<g id="XMLID_234_">
				
					<linearGradient id="XMLID_8_" gradientUnits="userSpaceOnUse" x1="-193.1437" y1="1395.0411" x2="-181.8873" y2="1383.7848" gradientTransform="matrix(0.7071 -0.7071 0.7071 0.7071 -890.0063 -694.7958)">
					<stop  offset="0" style="stop-color:#252F3D"/>
					<stop  offset="1" style="stop-color:#FFFFFF;stop-opacity:0"/>
				</linearGradient>
				<path id="XMLID_147_" class="st5" d="M-48.5,426.7c0,0,17.3,5.5,16.8-4.1c0,0,0.1-3-2.2-10.3l-7.9,3.7c0,0,2.2,6.3,1.2,8.8
					C-41.4,427-43.3,428-48.5,426.7z"/>
				
					<linearGradient id="XMLID_10_" gradientUnits="userSpaceOnUse" x1="-747.5131" y1="1423.0278" x2="-736.2568" y2="1411.7716" gradientTransform="matrix(-0.7071 -0.7071 0.7071 -0.7071 -1574.2147 844.4516)">
					<stop  offset="0" style="stop-color:#252F3D"/>
					<stop  offset="1" style="stop-color:#FFFFFF;stop-opacity:0"/>
				</linearGradient>
				<path id="XMLID_146_" class="st6" d="M-40.9,375.2c0,0,5.3-17.3-4.1-16.8c0,0-3-0.1-10.3,2.2l3.7,7.9c0,0,6.3-2.2,8.8-1.2
					C-40.6,368.1-39.6,370-40.9,375.2z"/>
				
					<linearGradient id="XMLID_12_" gradientUnits="userSpaceOnUse" x1="-775.5023" y1="868.6829" x2="-764.2458" y2="857.4263" gradientTransform="matrix(-0.7071 0.7071 -0.7071 -0.7071 -34.9673 1528.6602)">
					<stop  offset="0" style="stop-color:#252F3D"/>
					<stop  offset="1" style="stop-color:#FFFFFF;stop-opacity:0"/>
				</linearGradient>
				<path id="XMLID_145_" class="st7" d="M-92.4,367.5c0,0-17.3-5.5-16.8,4.1c0,0-0.1,3,2.2,10.3l7.9-3.7c0,0-2.2-6.3-1.2-8.8
					C-99.5,367.3-97.6,366.3-92.4,367.5z"/>
				
					<linearGradient id="XMLID_14_" gradientUnits="userSpaceOnUse" x1="-221.1331" y1="840.6957" x2="-209.8766" y2="829.4392" gradientTransform="matrix(0.7071 0.7071 -0.7071 0.7071 649.2411 -10.5874)">
					<stop  offset="0" style="stop-color:#252F3D"/>
					<stop  offset="1" style="stop-color:#FFFFFF;stop-opacity:0"/>
				</linearGradient>
				<path id="XMLID_144_" class="st8" d="M-100,419.1c0,0-5.3,17.3,4.1,16.8c0,0,3,0.1,10.3-2.2l-3.7-7.9c0,0-6.3,2.2-8.8,1.2
					C-100.3,426.2-101.3,424.3-100,419.1z"/>
			</g>
			<g id="XMLID_229_">
				<path id="XMLID_143_" class="st9" d="M-75.8,433.6c0,0,8.4,16,14.8,9c0,0,2.2-2.1,5.8-8.9l-8.2-3c0,0-3,6-5.2,7.1
					C-71.1,438.8-73.1,438.1-75.8,433.6z"/>
				<path id="XMLID_142_" class="st9" d="M-34,402.5c0,0,16-8.4,9-14.8c0,0-2.1-2.2-8.9-5.8l-3,8.2c0,0,6,3,7.1,5.2
					C-28.8,397.8-29.5,399.7-34,402.5z"/>
				<path id="XMLID_141_" class="st10" d="M-65.1,360.7c0,0-8.4-16-14.8-9c0,0-2.2,2.1-5.8,8.9l8.2,3c0,0,3-6,5.2-7.1
					C-69.8,355.5-67.8,356.2-65.1,360.7z"/>
				<path id="XMLID_140_" class="st10" d="M-106.9,391.8c0,0-16,8.4-9,14.8c0,0,2.1,2.2,8.9,5.8l3-8.2c0,0-6-3-7.1-5.2
					C-112.1,396.4-111.4,394.5-106.9,391.8z"/>
			</g>
			<g id="XMLID_226_">
				
					<linearGradient id="XMLID_15_" gradientUnits="userSpaceOnUse" x1="-169.4877" y1="1380.2579" x2="-169.4877" y2="1362.174" gradientTransform="matrix(0.7071 -0.7071 0.7071 0.7071 -890.0063 -694.7958)">
					<stop  offset="0" style="stop-color:#252F3D"/>
					<stop  offset="0.1224" style="stop-color:#4A535E;stop-opacity:0.8776"/>
					<stop  offset="0.3568" style="stop-color:#898F96;stop-opacity:0.6432"/>
					<stop  offset="0.5703" style="stop-color:#BDBFC3;stop-opacity:0.4297"/>
					<stop  offset="0.7553" style="stop-color:#E0E2E4;stop-opacity:0.2447"/>
					<stop  offset="0.9048" style="stop-color:#F7F8F9;stop-opacity:9.520561e-002"/>
					<stop  offset="1" style="stop-color:#FFFFFF;stop-opacity:0"/>
				</linearGradient>
				<path id="XMLID_139_" class="st11" d="M-44.7,386.3c-1.4,3.8-2.5,7.4-2.5,10.7c0,3.3,1.1,6.8,2.3,10.7c1.1-0.5,2.1-1,3.2-1.5
					c1.6-0.7,3.3-1.5,4.8-2.2c-1-2.6-1.6-5.1-1.6-7c0-2.7,1.5-6.8,3-10.8c0.4-1.1,0.8-2.2,1.2-3.4L-44.7,386.3z"/>
				
					<linearGradient id="XMLID_16_" gradientUnits="userSpaceOnUse" x1="-185.2563" y1="1400.9231" x2="-185.2563" y2="1385.1927" gradientTransform="matrix(0.7071 -0.7071 0.7071 0.7071 -890.0063 -694.7958)">
					<stop  offset="0" style="stop-color:#FFFFFF;stop-opacity:0"/>
					<stop  offset="9.520561e-002" style="stop-color:#F7F8F9;stop-opacity:9.520561e-002"/>
					<stop  offset="0.2447" style="stop-color:#E0E2E4;stop-opacity:0.2447"/>
					<stop  offset="0.4297" style="stop-color:#BDBFC3;stop-opacity:0.4297"/>
					<stop  offset="0.6432" style="stop-color:#898F96;stop-opacity:0.6432"/>
					<stop  offset="0.8776" style="stop-color:#4A535E;stop-opacity:0.8776"/>
					<stop  offset="1" style="stop-color:#252F3D"/>
				</linearGradient>
				<path id="XMLID_138_" class="st12" d="M-38,414.3c-1.2,0.5-2.6,1.2-3.8,1.8c1.4,4.4,2.2,8.4,0.4,10.1c-0.1,0.1-0.4,0.3-0.5,0.4
					l8.8,3c1.5-2.6,1.9-5.9,1.4-9.9c-0.4-2.5-1.1-5.1-1.9-7.5C-35.2,412.9-36.6,413.6-38,414.3z"/>
			</g>
			<g id="XMLID_223_">
				<path id="XMLID_137_" class="st0" d="M-59.9,371.4c1.8,3.7,3.6,7,5.9,9.3c2.3,2.3,5.6,4.1,9.2,5.9c0.4-1.1,0.8-2.2,1.2-3.3
					c0.5-1.6,1.2-3.3,1.8-4.9c-2.5-1.2-4.8-2.5-6-3.8c-1.9-1.9-3.7-5.9-5.5-9.9c-0.5-1.1-1-2.2-1.5-3.3L-59.9,371.4z"/>
				<path id="XMLID_136_" class="st0" d="M-35.4,386.3c-0.5,1.4-1,2.6-1.5,4c4.1,2.1,7.5,4.4,7.5,6.8c0,0.3,0,0.5-0.1,0.8l8.4-4.1
					c-0.8-2.9-2.9-5.5-6-7.8c-2.1-1.5-4.4-2.7-6.7-4C-34.4,383.4-34.8,384.8-35.4,386.3z"/>
			</g>
			<g id="XMLID_220_">
				
					<linearGradient id="XMLID_17_" gradientUnits="userSpaceOnUse" x1="-723.8461" y1="1408.2579" x2="-723.8461" y2="1390.174" gradientTransform="matrix(-0.7071 -0.7071 0.7071 -0.7071 -1574.2147 844.4516)">
					<stop  offset="0" style="stop-color:#252F3D"/>
					<stop  offset="0.1224" style="stop-color:#4A535E;stop-opacity:0.8776"/>
					<stop  offset="0.3568" style="stop-color:#898F96;stop-opacity:0.6432"/>
					<stop  offset="0.5703" style="stop-color:#BDBFC3;stop-opacity:0.4297"/>
					<stop  offset="0.7553" style="stop-color:#E0E2E4;stop-opacity:0.2447"/>
					<stop  offset="0.9048" style="stop-color:#F7F8F9;stop-opacity:9.520561e-002"/>
					<stop  offset="1" style="stop-color:#FFFFFF;stop-opacity:0"/>
				</linearGradient>
				<path id="XMLID_135_" class="st13" d="M-81.3,371.4c3.8,1.4,7.4,2.5,10.7,2.5s6.8-1.1,10.7-2.3c-0.5-1.1-1-2.1-1.5-3.2
					c-0.7-1.6-1.5-3.3-2.2-4.8c-2.6,1-5.1,1.6-7,1.6c-2.7,0-6.8-1.5-10.8-3c-1.1-0.4-2.2-0.8-3.4-1.2L-81.3,371.4z"/>
				
					<linearGradient id="XMLID_18_" gradientUnits="userSpaceOnUse" x1="-739.6147" y1="1428.9229" x2="-739.6147" y2="1413.1927" gradientTransform="matrix(-0.7071 -0.7071 0.7071 -0.7071 -1574.2147 844.4516)">
					<stop  offset="0" style="stop-color:#FFFFFF;stop-opacity:0"/>
					<stop  offset="9.520561e-002" style="stop-color:#F7F8F9;stop-opacity:9.520561e-002"/>
					<stop  offset="0.2447" style="stop-color:#E0E2E4;stop-opacity:0.2447"/>
					<stop  offset="0.4297" style="stop-color:#BDBFC3;stop-opacity:0.4297"/>
					<stop  offset="0.6432" style="stop-color:#898F96;stop-opacity:0.6432"/>
					<stop  offset="0.8776" style="stop-color:#4A535E;stop-opacity:0.8776"/>
					<stop  offset="1" style="stop-color:#252F3D"/>
				</linearGradient>
				<path id="XMLID_134_" class="st14" d="M-53.3,364.7c0.5,1.2,1.2,2.6,1.8,3.8c4.4-1.4,8.4-2.2,10.1-0.4c0.1,0.1,0.3,0.4,0.4,0.5
					l3-8.8c-2.6-1.5-5.9-1.9-9.9-1.4c-2.5,0.4-5.1,1.1-7.5,1.9C-54.7,361.9-54,363.3-53.3,364.7z"/>
			</g>
			<g id="XMLID_217_" class="st15">
				<path id="XMLID_133_" class="st0" d="M-96.2,386.6c3.7-1.8,7-3.6,9.3-5.9c2.3-2.3,4.1-5.6,5.9-9.2c-1.1-0.4-2.2-0.8-3.3-1.2
					c-1.6-0.5-3.3-1.2-4.9-1.8c-1.2,2.5-2.5,4.8-3.8,6c-1.9,1.9-5.9,3.7-9.9,5.5c-1.1,0.5-2.2,1-3.3,1.5L-96.2,386.6z"/>
				<path id="XMLID_132_" class="st0" d="M-81.3,362.1c1.4,0.5,2.6,1,4,1.5c2.1-4.1,4.4-7.5,6.8-7.5c0.3,0,0.5,0,0.8,0.1l-4.1-8.4
					c-2.9,0.8-5.5,2.9-7.8,6c-1.5,2.1-2.7,4.4-4,6.7C-84.2,361.1-82.8,361.5-81.3,362.1z"/>
			</g>
			<g id="XMLID_214_" class="st15">
				
					<linearGradient id="XMLID_19_" gradientUnits="userSpaceOnUse" x1="-751.8226" y1="853.9016" x2="-751.8226" y2="835.8177" gradientTransform="matrix(-0.7071 0.7071 -0.7071 -0.7071 -34.9673 1528.6602)">
					<stop  offset="0" style="stop-color:#252F3D"/>
					<stop  offset="0.1224" style="stop-color:#4A535E;stop-opacity:0.8776"/>
					<stop  offset="0.3568" style="stop-color:#898F96;stop-opacity:0.6432"/>
					<stop  offset="0.5703" style="stop-color:#BDBFC3;stop-opacity:0.4297"/>
					<stop  offset="0.7553" style="stop-color:#E0E2E4;stop-opacity:0.2447"/>
					<stop  offset="0.9048" style="stop-color:#F7F8F9;stop-opacity:9.520561e-002"/>
					<stop  offset="1" style="stop-color:#FFFFFF;stop-opacity:0"/>
				</linearGradient>
				<path id="XMLID_131_" class="st16" d="M-96.2,408c1.4-3.8,2.5-7.4,2.5-10.7s-1.1-6.8-2.3-10.7c-1.1,0.5-2.1,1-3.2,1.5
					c-1.6,0.7-3.3,1.5-4.8,2.2c1,2.6,1.6,5.1,1.6,7c0,2.7-1.5,6.8-3,10.8c-0.4,1.1-0.8,2.2-1.2,3.4L-96.2,408z"/>
				
					<linearGradient id="XMLID_20_" gradientUnits="userSpaceOnUse" x1="-767.5912" y1="874.5668" x2="-767.5912" y2="858.8365" gradientTransform="matrix(-0.7071 0.7071 -0.7071 -0.7071 -34.9673 1528.6602)">
					<stop  offset="0" style="stop-color:#FFFFFF;stop-opacity:0"/>
					<stop  offset="9.520561e-002" style="stop-color:#F7F8F9;stop-opacity:9.520561e-002"/>
					<stop  offset="0.2447" style="stop-color:#E0E2E4;stop-opacity:0.2447"/>
					<stop  offset="0.4297" style="stop-color:#BDBFC3;stop-opacity:0.4297"/>
					<stop  offset="0.6432" style="stop-color:#898F96;stop-opacity:0.6432"/>
					<stop  offset="0.8776" style="stop-color:#4A535E;stop-opacity:0.8776"/>
					<stop  offset="1" style="stop-color:#252F3D"/>
				</linearGradient>
				<path id="XMLID_130_" class="st17" d="M-102.9,380c1.2-0.5,2.6-1.2,3.8-1.8c-1.4-4.4-2.2-8.4-0.4-10.1c0.1-0.1,0.4-0.3,0.5-0.4
					l-8.8-3c-1.5,2.6-1.9,5.9-1.4,9.9c0.4,2.5,1.1,5.1,1.9,7.5C-105.7,381.4-104.3,380.7-102.9,380z"/>
			</g>
			<g id="XMLID_211_">
				<path id="XMLID_129_" class="st0" d="M-81,422.9c-1.8-3.7-3.6-7-5.9-9.3c-2.3-2.3-5.6-4.1-9.2-5.9c-0.4,1.1-0.8,2.2-1.2,3.3
					c-0.5,1.6-1.2,3.3-1.8,4.9c2.5,1.2,4.8,2.5,6,3.8c1.9,1.9,3.7,5.9,5.5,9.9c0.5,1.1,1,2.2,1.5,3.3L-81,422.9z"/>
				<path id="XMLID_128_" class="st0" d="M-105.5,408c0.5-1.4,1-2.6,1.5-4c-4.1-2.1-7.5-4.4-7.5-6.8c0-0.3,0-0.5,0.1-0.8l-8.4,4.1
					c0.8,2.9,2.9,5.5,6,7.8c2.1,1.5,4.4,2.7,6.7,4C-106.5,410.8-106.1,409.5-105.5,408z"/>
			</g>
			<g id="XMLID_208_">
				
					<linearGradient id="XMLID_21_" gradientUnits="userSpaceOnUse" x1="-197.4641" y1="825.9016" x2="-197.4641" y2="807.8177" gradientTransform="matrix(0.7071 0.7071 -0.7071 0.7071 649.2411 -10.5874)">
					<stop  offset="0" style="stop-color:#252F3D"/>
					<stop  offset="0.1224" style="stop-color:#4A535E;stop-opacity:0.8776"/>
					<stop  offset="0.3568" style="stop-color:#898F96;stop-opacity:0.6432"/>
					<stop  offset="0.5703" style="stop-color:#BDBFC3;stop-opacity:0.4297"/>
					<stop  offset="0.7553" style="stop-color:#E0E2E4;stop-opacity:0.2447"/>
					<stop  offset="0.9048" style="stop-color:#F7F8F9;stop-opacity:9.520561e-002"/>
					<stop  offset="1" style="stop-color:#FFFFFF;stop-opacity:0"/>
				</linearGradient>
				<path id="XMLID_127_" class="st18" d="M-59.6,422.9c-3.8-1.4-7.4-2.5-10.7-2.5s-6.8,1.1-10.7,2.3c0.5,1.1,1,2.1,1.5,3.2
					c0.7,1.6,1.5,3.3,2.2,4.8c2.6-1,5.1-1.6,7-1.6c2.7,0,6.8,1.5,10.8,3c1.1,0.4,2.2,0.8,3.4,1.2L-59.6,422.9z"/>
				
					<linearGradient id="XMLID_22_" gradientUnits="userSpaceOnUse" x1="-213.2327" y1="846.5667" x2="-213.2327" y2="830.8364" gradientTransform="matrix(0.7071 0.7071 -0.7071 0.7071 649.2411 -10.5874)">
					<stop  offset="0" style="stop-color:#FFFFFF;stop-opacity:0"/>
					<stop  offset="9.520561e-002" style="stop-color:#F7F8F9;stop-opacity:9.520561e-002"/>
					<stop  offset="0.2447" style="stop-color:#E0E2E4;stop-opacity:0.2447"/>
					<stop  offset="0.4297" style="stop-color:#BDBFC3;stop-opacity:0.4297"/>
					<stop  offset="0.6432" style="stop-color:#898F96;stop-opacity:0.6432"/>
					<stop  offset="0.8776" style="stop-color:#4A535E;stop-opacity:0.8776"/>
					<stop  offset="1" style="stop-color:#252F3D"/>
				</linearGradient>
				<path id="XMLID_126_" class="st19" d="M-87.6,429.6c-0.5-1.2-1.2-2.6-1.8-3.8c-4.4,1.4-8.4,2.2-10.1,0.4
					c-0.1-0.1-0.3-0.4-0.4-0.5l-3,8.8c2.6,1.5,5.9,1.9,9.9,1.4c2.5-0.4,5.1-1.1,7.5-1.9C-86.2,432.3-86.9,431-87.6,429.6z"/>
			</g>
			<g id="XMLID_205_">
				<path id="XMLID_125_" class="st0" d="M-44.7,407.7c-3.7,1.8-7,3.6-9.3,5.9c-2.3,2.3-4.1,5.6-5.9,9.2c1.1,0.4,2.2,0.8,3.3,1.2
					c1.6,0.5,3.3,1.2,4.9,1.8c1.2-2.5,2.5-4.8,3.8-6c1.9-1.9,5.9-3.7,9.9-5.5c1.1-0.5,2.2-1,3.3-1.5L-44.7,407.7z"/>
				<path id="XMLID_124_" class="st0" d="M-59.6,432.2c-1.4-0.5-2.6-1-4-1.5c-2.1,4.1-4.4,7.5-6.8,7.5c-0.3,0-0.5,0-0.8-0.1l4.1,8.4
					c2.9-0.8,5.5-2.9,7.8-6c1.5-2.1,2.7-4.4,4-6.7C-56.8,433.2-58.1,432.7-59.6,432.2z"/>
			</g>
		</g>
		
			<linearGradient id="XMLID_23_" gradientUnits="userSpaceOnUse" x1="-231.473" y1="1320.4352" x2="-192.6409" y2="1320.4352" gradientTransform="matrix(0.7071 -0.7071 0.7071 0.7071 -890.0063 -694.7958)">
			<stop  offset="0" style="stop-color:#FFFFFF"/>
			<stop  offset="0.797" style="stop-color:#FFFFFF;stop-opacity:0"/>
		</linearGradient>
		<path id="XMLID_123_" class="st20" d="M-115.9,406.6c-6.3-5.8,5.8-12.9,8.5-14.5c2.3-1.5,5.3-2.9,8.1-4.1
			c4.8-2.2,9.3-4.2,12.3-7.3l-6.2-6.2c-1.9,1.9-5.9,3.7-9.9,5.5c-3.8,1.8-7.8,3.6-11,5.9c-4.2,3.2-6.4,7-6.4,11.2
			C-120.3,400.7-118.8,403.8-115.9,406.6L-115.9,406.6z"/>
		
			<linearGradient id="XMLID_24_" gradientUnits="userSpaceOnUse" x1="-529.6905" y1="1445.8237" x2="-490.859" y2="1445.8237" gradientTransform="matrix(0 -1 1 0 -1547.3 -93.7)">
			<stop  offset="0" style="stop-color:#FFFFFF"/>
			<stop  offset="0.797" style="stop-color:#FFFFFF;stop-opacity:0"/>
		</linearGradient>
		<path id="XMLID_122_" class="st21" d="M-95.9,435.9c-8.5,0.4-5.1-13.2-4.2-16.2c0.5-2.7,1.8-5.8,2.9-8.6c1.8-4.9,3.6-9.6,3.6-13.8
			h-8.8c0,2.7-1.5,6.8-3,10.8s-3,8.1-3.6,11.9c-0.8,5.3,0.3,9.5,3.3,12.5C-103.2,434.9-99.9,436.2-95.9,435.9L-95.9,435.9z"/>
		
			<linearGradient id="XMLID_25_" gradientUnits="userSpaceOnUse" x1="-828.9884" y1="1323.4757" x2="-790.1565" y2="1323.4757" gradientTransform="matrix(-0.7071 -0.7071 0.7071 -0.7071 -1587.0958 796.3063)">
			<stop  offset="0" style="stop-color:#FFFFFF"/>
			<stop  offset="0.797" style="stop-color:#FFFFFF;stop-opacity:0"/>
		</linearGradient>
		<path id="XMLID_121_" class="st22" d="M-61,442.6c-5.8,6.3-12.9-5.8-14.5-8.5c-1.5-2.3-2.9-5.3-4.1-8.1c-2.2-4.8-4.2-9.3-7.3-12.3
			l-6.2,6.2c1.9,1.9,3.7,5.9,5.5,9.9c1.8,3.8,3.6,7.8,5.9,11c3.2,4.2,7,6.4,11.2,6.4C-66.9,447-63.7,445.5-61,442.6L-61,442.6z"/>
		
			<linearGradient id="XMLID_26_" gradientUnits="userSpaceOnUse" x1="-954.3557" y1="1025.4736" x2="-915.5241" y2="1025.4736" gradientTransform="matrix(-1 0 0 -1 -986 1453.6)">
			<stop  offset="0" style="stop-color:#FFFFFF"/>
			<stop  offset="0.797" style="stop-color:#FFFFFF;stop-opacity:0"/>
		</linearGradient>
		<path id="XMLID_120_" class="st23" d="M-31.7,422.6c0.4,8.5-13.2,5.1-16.2,4.2c-2.7-0.5-5.8-1.8-8.6-2.9
			c-4.9-1.8-9.6-3.6-13.8-3.6v8.8c2.7,0,6.8,1.5,10.8,3s8.1,3,11.9,3.6c5.3,0.8,9.5-0.3,12.5-3.3C-32.6,429.9-31.4,426.6-31.7,422.6
			L-31.7,422.6z"/>
		
			<linearGradient id="XMLID_27_" gradientUnits="userSpaceOnUse" x1="-832.0289" y1="725.9647" x2="-793.1969" y2="725.9647" gradientTransform="matrix(-0.7071 0.7071 -0.7071 -0.7071 -95.9937 1493.3958)">
			<stop  offset="0" style="stop-color:#FFFFFF"/>
			<stop  offset="0.797" style="stop-color:#FFFFFF;stop-opacity:0"/>
		</linearGradient>
		<path id="XMLID_119_" class="st24" d="M-25,387.7c6.3,5.8-5.8,12.9-8.5,14.5c-2.3,1.5-5.3,2.9-8.1,4.1c-4.8,2.2-9.3,4.2-12.3,7.3
			l6.2,6.2c1.9-1.9,5.9-3.7,9.9-5.5c3.8-1.8,7.8-3.6,11-5.9c4.2-3.2,6.4-7,6.4-11.2C-20.6,393.6-22.1,390.4-25,387.7L-25,387.7z"/>
		
			<linearGradient id="XMLID_28_" gradientUnits="userSpaceOnUse" x1="-534.0239" y1="600.8237" x2="-495.1923" y2="600.8237" gradientTransform="matrix(0 1 -1 0 561.3 892.3)">
			<stop  offset="0" style="stop-color:#FFFFFF"/>
			<stop  offset="0.797" style="stop-color:#FFFFFF;stop-opacity:0"/>
		</linearGradient>
		<path id="XMLID_118_" class="st25" d="M-45,358.4c8.5-0.4,5.1,13.2,4.2,16.2c-0.5,2.7-1.8,5.8-2.9,8.6c-1.8,4.9-3.6,9.6-3.6,13.8
			h8.8c0-2.7,1.5-6.8,3-10.8s3-8.1,3.6-11.9c0.8-5.3-0.3-9.5-3.3-12.5C-37.7,359.3-41,358.1-45,358.4L-45,358.4z"/>
		
			<linearGradient id="XMLID_29_" gradientUnits="userSpaceOnUse" x1="-234.518" y1="722.9241" x2="-195.6859" y2="722.9241" gradientTransform="matrix(0.7071 0.7071 -0.7071 0.7071 601.0958 2.2937)">
			<stop  offset="0" style="stop-color:#FFFFFF"/>
			<stop  offset="0.797" style="stop-color:#FFFFFF;stop-opacity:0"/>
		</linearGradient>
		<path id="XMLID_117_" class="st26" d="M-79.9,351.7c5.8-6.3,12.9,5.8,14.5,8.5c1.5,2.3,2.9,5.3,4.1,8.1c2.2,4.8,4.2,9.3,7.3,12.3
			l6.2-6.2c-1.9-1.9-3.7-5.9-5.5-9.9c-1.8-3.8-3.6-7.8-5.9-11c-3.2-4.2-7-6.4-11.2-6.4C-74,347.3-77.2,348.8-79.9,351.7L-79.9,351.7
			z"/>
		
			<linearGradient id="XMLID_30_" gradientUnits="userSpaceOnUse" x1="-109.3585" y1="1021.1737" x2="-70.5269" y2="1021.1737" gradientTransform="matrix(1 0 0 1 0 -655)">
			<stop  offset="0" style="stop-color:#FFFFFF"/>
			<stop  offset="0.797" style="stop-color:#FFFFFF;stop-opacity:0"/>
		</linearGradient>
		<path id="XMLID_116_" class="st27" d="M-109.2,371.7c-0.4-8.5,13.2-5.1,16.2-4.2c2.7,0.5,5.8,1.8,8.6,2.9
			c4.9,1.8,9.6,3.6,13.8,3.6v-8.8c-2.7,0-6.8-1.5-10.8-3s-8.1-3-11.9-3.6c-5.3-0.8-9.5,0.3-12.5,3.3
			C-108.3,364.4-109.5,367.7-109.2,371.7L-109.2,371.7z"/>
		<g id="XMLID_191_">
			<g id="XMLID_192_">
				<g>
					<defs>
						<path id="SVGID_1_" d="M-109.2,371.7c-0.4-8.5,13.2-5.1,16.2-4.2c2.7,0.5,5.8,1.8,8.6,2.9c4.9,1.8,9.6,3.6,13.8,3.6v-8.8
							c-2.7,0-6.8-1.5-10.8-3s-8.1-3-11.9-3.6c-5.3-0.8-9.5,0.3-12.5,3.3C-108.3,364.4-109.5,367.7-109.2,371.7L-109.2,371.7z"/>
					</defs>
					<clipPath id="SVGID_2_">
						<use xlink:href="#SVGID_1_"  style="overflow:visible;"/>
					</clipPath>
					<g id="XMLID_193_" class="st28">
						
							<linearGradient id="XMLID_31_" gradientUnits="userSpaceOnUse" x1="-112.0498" y1="1024.2555" x2="-70.5239" y2="1024.2555" gradientTransform="matrix(1 0 0 1 0 -655)">
							<stop  offset="0" style="stop-color:#FFFFFF"/>
							<stop  offset="1" style="stop-color:#FFFFFF;stop-opacity:0"/>
						</linearGradient>
						<path id="XMLID_114_" class="st29" d="M-109.4,371.8L-109.4,371.8L-109.4,371.8c-0.3-1-0.4-2.1-0.1-3c0.3-1.1,1-2.1,1.9-2.7
							c1-0.7,1.9-1.1,2.9-1.5c1-0.3,2.1-0.5,3-0.5c2.1-0.1,4-0.1,5.9,0.1c1,0.1,1.9,0.3,2.9,0.5l0.7,0.1l0.5,0.1l1.4,0.4
							c3.7,1.1,7,2.6,10.1,4.2c1.6,0.8,3.2,1.5,4.8,2.3c1.6,0.8,3.2,1.4,5.1,2.1c-1.8,0.5-3.7,0.7-5.6,0.5c-1.9-0.1-3.7-0.4-5.5-0.8
							c-1.8-0.4-3.6-1-5.2-1.5c-1.6-0.5-3.4-1.1-4.9-1.5l-1.2-0.3h-0.8l-0.5-0.1c-0.8-0.3-1.6-0.4-2.5-0.7c-1.6-0.4-3.3-0.7-4.9-1
							c-1.6-0.3-3.2-0.3-4.5,0.1c-0.7,0.1-1.2,0.5-1.8,1.1C-108.5,370-108.9,370.8-109.4,371.8L-109.4,371.8L-109.4,371.8z"/>
					</g>
				</g>
			</g>
		</g>
		<g id="XMLID_186_" class="st30">
			<g id="XMLID_187_">
				<g>
					<defs>
						<path id="SVGID_3_" d="M-115.9,406.6c-6.3-5.8,5.8-12.9,8.5-14.5c2.3-1.5,5.3-2.9,8.1-4.1c4.8-2.2,9.3-4.2,12.3-7.3l-6.2-6.2
							c-1.9,1.9-5.9,3.7-9.9,5.5c-3.8,1.8-7.8,3.6-11,5.9c-4.2,3.2-6.4,7-6.4,11.2C-120.3,400.7-118.8,403.8-115.9,406.6
							L-115.9,406.6z"/>
					</defs>
					<clipPath id="SVGID_4_">
						<use xlink:href="#SVGID_3_"  style="overflow:visible;"/>
					</clipPath>
					<g id="XMLID_188_" class="st31">
						
							<linearGradient id="XMLID_32_" gradientUnits="userSpaceOnUse" x1="-119.8219" y1="1061.5708" x2="-90.4588" y2="1032.2076" gradientTransform="matrix(1 0 0 1 0 -655)">
							<stop  offset="0" style="stop-color:#FFFFFF"/>
							<stop  offset="1" style="stop-color:#FFFFFF;stop-opacity:0"/>
						</linearGradient>
						<path id="XMLID_111_" class="st32" d="M-115.8,406.7L-115.8,406.7L-115.8,406.7c-1-0.4-1.8-1.1-2.3-2.1s-0.7-2.2-0.7-3.3
							c0.1-1.1,0.5-2.2,1-3.2s1.1-1.8,1.8-2.6c1.2-1.5,2.7-2.9,4.2-4c0.8-0.5,1.5-1.1,2.3-1.6l0.7-0.4l0.5-0.3l1.2-0.7
							c3.3-1.8,6.7-3,10.1-4.2c1.6-0.5,3.3-1.1,5.1-1.8c1.6-0.5,3.3-1.2,4.9-2.1c-0.8,1.6-2.2,3.2-3.6,4.4c-1.4,1.2-3,2.3-4.5,3.3
							s-3.2,1.8-4.8,2.7c-1.5,0.8-3.2,1.6-4.7,2.5l-1.1,0.5l-0.7,0.4l-0.5,0.3c-0.7,0.4-1.5,0.8-2.2,1.2c-1.5,0.8-2.9,1.8-4.1,2.7
							c-1.2,0.9-2.5,2.1-3.2,3.3c-0.4,0.5-0.5,1.2-0.5,2.1C-116.6,404.9-116.3,405.8-115.8,406.7L-115.8,406.7L-115.8,406.7z"/>
					</g>
				</g>
			</g>
		</g>
		<g id="XMLID_181_" class="st33">
			<g id="XMLID_182_">
				<g>
					<defs>
						<path id="SVGID_5_" d="M-95.9,435.9c-8.5,0.4-5.1-13.2-4.2-16.2c0.5-2.7,1.8-5.8,2.9-8.6c1.8-4.9,3.6-9.6,3.6-13.8h-8.8
							c0,2.7-1.5,6.8-3,10.8s-3,8.1-3.6,11.9c-0.8,5.3,0.3,9.5,3.3,12.5C-103.2,434.9-99.9,436.2-95.9,435.9L-95.9,435.9z"/>
					</defs>
					<clipPath id="SVGID_6_">
						<use xlink:href="#SVGID_5_"  style="overflow:visible;"/>
					</clipPath>
					<g id="XMLID_183_" class="st34">
						
							<linearGradient id="XMLID_33_" gradientUnits="userSpaceOnUse" x1="-98.3945" y1="1093.6814" x2="-98.3945" y2="1052.1559" gradientTransform="matrix(1 0 0 1 0 -655)">
							<stop  offset="0" style="stop-color:#FFFFFF"/>
							<stop  offset="1" style="stop-color:#FFFFFF;stop-opacity:0"/>
						</linearGradient>
						<path id="XMLID_55_" class="st35" d="M-95.8,436L-95.8,436L-95.8,436c-1,0.3-2.1,0.4-3,0.1c-1.1-0.3-2.1-1-2.7-1.9
							c-0.7-1-1.1-1.9-1.5-2.9c-0.3-1-0.5-2.1-0.5-3c-0.1-2.1-0.1-4,0.1-5.9c0.1-1,0.3-1.9,0.5-2.9l0.1-0.7l0.1-0.5l0.4-1.4
							c1.1-3.7,2.6-7,4.2-10.1c0.8-1.6,1.5-3.2,2.3-4.8c0.8-1.6,1.4-3.2,2.1-5.1c0.5,1.8,0.7,3.7,0.5,5.6c-0.1,1.9-0.4,3.7-0.8,5.5
							c-0.4,1.8-1,3.6-1.5,5.2s-1.1,3.4-1.5,4.9l-0.3,1.2l-0.1,0.7l-0.1,0.5c-0.3,0.8-0.4,1.6-0.7,2.5c-0.4,1.6-0.7,3.3-1,4.9
							c-0.3,1.6-0.3,3.2,0.1,4.5c0.1,0.7,0.5,1.2,1.1,1.8C-97.6,435.2-96.8,435.6-95.8,436L-95.8,436L-95.8,436z"/>
					</g>
				</g>
			</g>
		</g>
		<g id="XMLID_176_" class="st36">
			<g id="XMLID_177_">
				<g>
					<defs>
						<path id="SVGID_7_" d="M-61,442.6c-5.8,6.3-12.9-5.8-14.5-8.5c-1.5-2.3-2.9-5.3-4.1-8.1c-2.2-4.8-4.2-9.3-7.3-12.3l-6.2,6.2
							c1.9,1.9,3.7,5.9,5.5,9.9c1.8,3.8,3.6,7.8,5.9,11c3.2,4.2,7,6.4,11.2,6.4C-66.9,447-63.7,445.5-61,442.6L-61,442.6z"/>
					</defs>
					<clipPath id="SVGID_8_">
						<use xlink:href="#SVGID_7_"  style="overflow:visible;"/>
					</clipPath>
					<g id="XMLID_178_" class="st37">
						
							<linearGradient id="XMLID_34_" gradientUnits="userSpaceOnUse" x1="-61.0057" y1="1101.3954" x2="-90.3685" y2="1072.0326" gradientTransform="matrix(1 0 0 1 0 -655)">
							<stop  offset="0" style="stop-color:#FFFFFF"/>
							<stop  offset="1" style="stop-color:#FFFFFF;stop-opacity:0"/>
						</linearGradient>
						<path id="XMLID_50_" class="st38" d="M-60.9,442.5L-60.9,442.5L-60.9,442.5c-0.4,1-1.1,1.8-2.1,2.3c-1,0.5-2.2,0.7-3.3,0.7
							c-1.1-0.1-2.2-0.5-3.2-1s-1.8-1.1-2.6-1.8c-1.5-1.2-2.9-2.7-4-4.2c-0.5-0.8-1.1-1.5-1.6-2.3l-0.4-0.7l-0.3-0.5l-0.5-1.3
							c-1.8-3.3-3-6.7-4.2-10.1c-0.5-1.6-1.1-3.3-1.8-5.1c-0.5-1.6-1.2-3.3-2.1-4.9c1.6,0.8,3.2,2.2,4.4,3.6c1.2,1.4,2.3,3,3.3,4.5
							s1.8,3.2,2.7,4.8c0.8,1.5,1.6,3.2,2.5,4.7l0.5,1.1l0.4,0.7l0.3,0.5c0.4,0.7,0.8,1.5,1.2,2.2c0.8,1.5,1.8,2.9,2.7,4.1
							c1,1.2,2.1,2.5,3.3,3.2c0.5,0.4,1.2,0.5,2.1,0.5C-62.6,443.3-61.8,443-60.9,442.5L-60.9,442.5L-60.9,442.5z"/>
					</g>
				</g>
			</g>
		</g>
		<g id="XMLID_171_" class="st39">
			<g id="XMLID_172_">
				<g>
					<defs>
						<path id="SVGID_9_" d="M-31.7,422.6c0.4,8.5-13.2,5.1-16.2,4.2c-2.7-0.5-5.8-1.8-8.6-2.9c-4.9-1.8-9.6-3.6-13.8-3.6v8.8
							c2.7,0,6.8,1.5,10.8,3s8.1,3,11.9,3.6c5.3,0.8,9.5-0.3,12.5-3.3C-32.6,429.9-31.4,426.6-31.7,422.6L-31.7,422.6z"/>
					</defs>
					<clipPath id="SVGID_10_">
						<use xlink:href="#SVGID_9_"  style="overflow:visible;"/>
					</clipPath>
					<g id="XMLID_173_" class="st40">
						
							<linearGradient id="XMLID_35_" gradientUnits="userSpaceOnUse" x1="-28.9532" y1="1079.9945" x2="-70.479" y2="1079.9945" gradientTransform="matrix(1 0 0 1 0 -655)">
							<stop  offset="0" style="stop-color:#FFFFFF"/>
							<stop  offset="1" style="stop-color:#FFFFFF;stop-opacity:0"/>
						</linearGradient>
						<path id="XMLID_13_" class="st41" d="M-31.5,422.5L-31.5,422.5L-31.5,422.5c0.3,1,0.4,2.1,0.1,3c-0.3,1.1-1,2.1-1.9,2.7
							s-1.9,1.1-2.9,1.5c-1,0.3-2.1,0.5-3,0.5c-2.1,0.1-4,0.1-5.9-0.1c-1-0.1-1.9-0.3-2.9-0.5l-0.7-0.1l-0.5-0.2l-1.4-0.4
							c-3.7-1.1-7-2.6-10.1-4.2c-1.6-0.8-3.2-1.5-4.8-2.3c-1.6-0.8-3.2-1.4-5.1-2.1c1.8-0.5,3.7-0.7,5.6-0.5
							c1.9,0.1,3.7,0.4,5.5,0.8c1.8,0.4,3.6,1,5.2,1.5s3.4,1.1,4.9,1.5l1.2,0.3l0.7,0.1l0.5,0.1c0.8,0.3,1.6,0.4,2.5,0.7
							c1.6,0.4,3.3,0.7,4.9,1c1.6,0.3,3.2,0.3,4.5-0.1c0.7-0.1,1.2-0.5,1.8-1.1C-32.4,424.3-32,423.4-31.5,422.5L-31.5,422.5
							L-31.5,422.5z"/>
					</g>
				</g>
			</g>
		</g>
		<g id="XMLID_166_" class="st36">
			<g id="XMLID_167_">
				<g>
					<defs>
						<path id="SVGID_11_" d="M-25,387.7c6.3,5.8-5.8,12.9-8.5,14.5c-2.3,1.5-5.3,2.9-8.1,4.1c-4.8,2.2-9.3,4.2-12.3,7.3l6.2,6.2
							c1.9-1.9,5.9-3.7,9.9-5.5c3.8-1.8,7.8-3.6,11-5.9c4.2-3.2,6.4-7,6.4-11.2C-20.6,393.6-22.1,390.4-25,387.7L-25,387.7z"/>
					</defs>
					<clipPath id="SVGID_12_">
						<use xlink:href="#SVGID_11_"  style="overflow:visible;"/>
					</clipPath>
					<g id="XMLID_168_" class="st42">
						
							<linearGradient id="XMLID_36_" gradientUnits="userSpaceOnUse" x1="-21.2628" y1="1042.6139" x2="-50.6259" y2="1071.9771" gradientTransform="matrix(1 0 0 1 0 -655)">
							<stop  offset="0" style="stop-color:#FFFFFF"/>
							<stop  offset="1" style="stop-color:#FFFFFF;stop-opacity:0"/>
						</linearGradient>
						<path id="XMLID_11_" class="st43" d="M-25.1,387.5L-25.1,387.5L-25.1,387.5c1,0.4,1.8,1.1,2.3,2.1s0.7,2.2,0.7,3.3
							c-0.1,1.1-0.5,2.2-1,3.2s-1.1,1.8-1.8,2.6c-1.2,1.5-2.7,2.9-4.2,4c-0.8,0.5-1.5,1.1-2.3,1.6l-0.7,0.4l-0.5,0.3l-1.3,0.6
							c-3.3,1.8-6.7,3-10.1,4.2c-1.6,0.5-3.3,1.1-5.1,1.8c-1.6,0.5-3.3,1.2-4.9,2.1c0.8-1.6,2.2-3.2,3.6-4.4c1.4-1.2,3-2.3,4.5-3.3
							s3.2-1.8,4.8-2.7c1.5-0.8,3.2-1.6,4.7-2.5l1.1-0.5l0.7-0.4l0.5-0.3c0.7-0.4,1.5-0.8,2.2-1.2c1.5-0.8,2.9-1.8,4.1-2.7
							c1.2-1,2.5-2.1,3.2-3.3c0.4-0.5,0.5-1.2,0.5-2.1C-24.3,389.3-24.6,388.5-25.1,387.5L-25.1,387.5L-25.1,387.5z"/>
					</g>
				</g>
			</g>
		</g>
		<g id="XMLID_161_" class="st33">
			<g id="XMLID_162_">
				<g>
					<defs>
						<path id="SVGID_13_" d="M-45,358.4c8.5-0.4,5.1,13.2,4.2,16.2c-0.5,2.7-1.8,5.8-2.9,8.6c-1.8,4.9-3.6,9.6-3.6,13.8h8.8
							c0-2.7,1.5-6.8,3-10.8s3-8.1,3.6-11.9c0.8-5.3-0.3-9.5-3.3-12.5C-37.7,359.3-41,358.1-45,358.4L-45,358.4z"/>
					</defs>
					<clipPath id="SVGID_14_">
						<use xlink:href="#SVGID_13_"  style="overflow:visible;"/>
					</clipPath>
					<g id="XMLID_163_" class="st44">
						
							<linearGradient id="XMLID_37_" gradientUnits="userSpaceOnUse" x1="-42.6555" y1="1010.5851" x2="-42.6555" y2="1052.1107" gradientTransform="matrix(1 0 0 1 0 -655)">
							<stop  offset="0" style="stop-color:#FFFFFF"/>
							<stop  offset="1" style="stop-color:#FFFFFF;stop-opacity:0"/>
						</linearGradient>
						<path id="XMLID_9_" class="st45" d="M-45.1,358.2L-45.1,358.2L-45.1,358.2c1-0.3,2.1-0.4,3-0.1c1.1,0.3,2.1,1,2.7,1.9
							c0.7,1,1.1,1.9,1.5,2.9c0.3,1,0.5,2.1,0.5,3c0.1,2.1,0.1,4-0.1,5.9c-0.1,1-0.3,1.9-0.5,2.9l-0.1,0.7l-0.1,0.5l-0.5,1.4
							c-1.1,3.7-2.6,7-4.2,10.1c-0.8,1.6-1.5,3.2-2.3,4.8c-0.8,1.6-1.4,3.2-2.1,5.1c-0.5-1.8-0.7-3.7-0.5-5.6
							c0.1-1.9,0.4-3.7,0.8-5.5c0.4-1.8,1-3.6,1.5-5.2s1.1-3.4,1.5-4.9l0.3-1.2l0.1-0.7l0.1-0.5c0.3-0.8,0.4-1.6,0.7-2.5
							c0.4-1.6,0.7-3.3,1-4.9s0.3-3.2-0.1-4.5c-0.1-0.7-0.5-1.2-1.1-1.8C-43.3,359.1-44.2,358.6-45.1,358.2L-45.1,358.2L-45.1,358.2
							z"/>
					</g>
				</g>
			</g>
		</g>
		<g id="XMLID_156_" class="st30">
			<g id="XMLID_157_">
				<g>
					<defs>
						<path id="SVGID_15_" d="M-79.9,351.7c5.8-6.3,12.9,5.8,14.5,8.5c1.5,2.3,2.9,5.3,4.1,8.1c2.2,4.8,4.2,9.3,7.3,12.3l6.2-6.2
							c-1.9-1.9-3.7-5.9-5.5-9.9c-1.8-3.8-3.6-7.8-5.9-11c-3.2-4.2-7-6.4-11.2-6.4C-74,347.3-77.2,348.8-79.9,351.7L-79.9,351.7z"/>
					</defs>
					<clipPath id="SVGID_16_">
						<use xlink:href="#SVGID_15_"  style="overflow:visible;"/>
					</clipPath>
					<g id="XMLID_158_" class="st46">
						
							<linearGradient id="XMLID_38_" gradientUnits="userSpaceOnUse" x1="-79.9375" y1="1002.8114" x2="-50.5745" y2="1032.1743" gradientTransform="matrix(1 0 0 1 0 -655)">
							<stop  offset="0" style="stop-color:#FFFFFF"/>
							<stop  offset="1" style="stop-color:#FFFFFF;stop-opacity:0"/>
						</linearGradient>
						<path id="XMLID_7_" class="st47" d="M-80,351.8L-80,351.8L-80,351.8c0.4-1,1.1-1.8,2.1-2.3s2.2-0.7,3.3-0.7
							c1.1,0.1,2.2,0.5,3.2,1s1.8,1.1,2.6,1.8c1.5,1.2,2.9,2.7,4,4.2c0.5,0.8,1.1,1.5,1.6,2.3l0.4,0.7l0.3,0.5l0.7,1.2
							c1.8,3.3,3,6.7,4.2,10.1c0.5,1.6,1.1,3.3,1.8,5.1c0.5,1.6,1.2,3.3,2.1,4.9c-1.6-0.8-3.2-2.2-4.4-3.6c-1.2-1.4-2.3-3-3.3-4.5
							s-1.8-3.2-2.7-4.8c-0.8-1.5-1.6-3.2-2.5-4.7l-0.5-1.1l-0.4-0.7l-0.3-0.5c-0.4-0.7-0.8-1.5-1.2-2.2c-0.8-1.5-1.8-2.9-2.7-4.1
							s-2.1-2.5-3.3-3.2c-0.5-0.4-1.2-0.5-2.1-0.5C-78.3,351-79.1,351.2-80,351.8L-80,351.8L-80,351.8z"/>
					</g>
				</g>
			</g>
		</g>
	</g>
	<g>
		<path class="st0" d="M11.1,418.4v11.2c0,4.2,1.9,6,4.4,6c2.8,0,4.6-1.8,4.6-6v-11.2h2.5v11c0,5.8-3.1,8.2-7.1,8.2
			c-3.9,0-6.8-2.2-6.8-8.1v-11.1H11.1z"/>
		<path class="st0" d="M35.1,427.4c0-1.4,0-2.5-0.1-3.7h2.2l0.1,2.2h0.1c0.7-1.3,2.2-2.5,4.5-2.5c1.9,0,4.8,1.1,4.8,5.8v8.1h-2.5
			v-7.8c0-2.2-0.8-4-3.1-4c-1.6,0-2.9,1.1-3.3,2.5c-0.1,0.3-0.2,0.7-0.2,1.1v8.1h-2.5V427.4z"/>
		<path class="st0" d="M61.8,419.9c0,0.8-0.6,1.5-1.6,1.5c-0.9,0-1.5-0.7-1.5-1.5c0-0.9,0.6-1.5,1.5-1.5
			C61.2,418.4,61.8,419.1,61.8,419.9z M59,437.3v-13.6h2.5v13.6H59z"/>
		<path class="st0" d="M75,423.7l2.7,7.6c0.4,1.2,0.8,2.4,1.1,3.5h0.1c0.3-1.1,0.7-2.2,1.1-3.5l2.6-7.6h2.6l-5.3,13.6h-2.4
			l-5.2-13.6H75z"/>
		<path class="st0" d="M97,431c0.1,3.3,2.2,4.7,4.6,4.7c1.8,0,2.8-0.3,3.8-0.7l0.4,1.8c-0.9,0.4-2.4,0.8-4.5,0.8
			c-4.2,0-6.7-2.7-6.7-6.8s2.4-7.3,6.4-7.3c4.4,0,5.6,3.9,5.6,6.4c0,0.5-0.1,0.9-0.1,1.1H97z M104.2,429.2c0-1.6-0.6-4-3.4-4
			c-2.5,0-3.6,2.3-3.8,4H104.2z"/>
		<path class="st0" d="M118,428c0-1.6,0-3-0.1-4.2h2.2l0.1,2.7h0.1c0.6-1.8,2.1-3,3.8-3c0.3,0,0.5,0,0.7,0.1v2.3
			c-0.3-0.1-0.5-0.1-0.8-0.1c-1.7,0-3,1.3-3.3,3.2c-0.1,0.3-0.1,0.7-0.1,1.1v7.2H118V428z"/>
		<path class="st0" d="M135.2,434.8c0.7,0.5,2,1,3.2,1c1.8,0,2.6-0.9,2.6-2c0-1.2-0.7-1.8-2.5-2.5c-2.4-0.9-3.6-2.2-3.6-3.8
			c0-2.2,1.8-4,4.7-4c1.4,0,2.6,0.4,3.3,0.8l-0.6,1.8c-0.5-0.3-1.5-0.8-2.8-0.8c-1.5,0-2.3,0.8-2.3,1.8c0,1.1,0.8,1.6,2.6,2.3
			c2.4,0.9,3.6,2.1,3.6,4.1c0,2.4-1.8,4.1-5.1,4.1c-1.5,0-2.9-0.4-3.8-0.9L135.2,434.8z"/>
		<path class="st0" d="M157.8,419.9c0,0.8-0.6,1.5-1.6,1.5c-0.9,0-1.5-0.7-1.5-1.5c0-0.9,0.6-1.5,1.5-1.5
			C157.2,418.4,157.8,419.1,157.8,419.9z M155.1,437.3v-13.6h2.5v13.6H155.1z"/>
		<path class="st0" d="M173,419.9v3.9h3.5v1.9H173v7.3c0,1.7,0.5,2.6,1.8,2.6c0.6,0,1.1-0.1,1.4-0.2l0.1,1.8
			c-0.5,0.2-1.2,0.3-2.2,0.3c-1.1,0-2.1-0.4-2.7-1c-0.7-0.7-1-1.9-1-3.5v-7.4h-2.1v-1.9h2.1v-3.2L173,419.9z"/>
		<path class="st0" d="M188.8,423.7l3,8c0.3,0.9,0.6,2,0.9,2.8h0.1c0.3-0.8,0.5-1.8,0.9-2.8l2.7-8h2.6l-3.7,9.7
			c-1.8,4.6-3,7-4.6,8.5c-1.2,1.1-2.4,1.5-3,1.6l-0.6-2.1c0.6-0.2,1.4-0.6,2.2-1.2c0.7-0.5,1.5-1.5,2.1-2.7c0.1-0.3,0.2-0.4,0.2-0.6
			s-0.1-0.3-0.2-0.6l-5-12.5H188.8z"/>
	</g>
</g>
</svg>
